<?xml version="1.0" encoding="UTF-8" standalone="no"?>
<svg width="100%" height="100%" viewBox="0 0 100 100" version="1.1" xmlns="http://www.w3.org/2000/svg" xmlns:xlink="http://www.w3.org/1999/xlink" xml:space="preserve" xmlns:serif="http://www.serif.com/" style="fill-rule:evenodd;clip-rule:evenodd;stroke-linejoin:round;stroke-miterlimit:2;">
    <rect x="0.026" y="0.069" width="99.98" height="99.946" style="fill:rgb(186,172,147);"/>
    <g transform="matrix(1,0,0,1,-4.72638,5.17598)">
        <g>
            <path d="M29,63L29,31C25.7,31 23,33.7 23,37L23,75C23,78.3 25.7,81 29,81L59,81C62.3,81 65,78.3 65,75L41,75C34.4,75 29,75 29,63ZM75,37L65,37C61.7,37 59,34.3 59,31L59,21C59,19.9 58.1,19 57,19L41,19C37.7,19 35,21.7 35,25L35,63C35,66.3 37.7,69 41,69L71,69C74.3,69 77,66.3 77,63L77,39C77,37.9 76.1,37 75,37Z" style="fill:white;fill-rule:nonzero;"/>
            <g transform="matrix(1,0,0,1,7.35276,-47.552)">
                <path d="M67.2,56.2C60.7,56.2 55.3,61.5 55.3,68.1C55.3,74.7 60.6,80 67.2,80C73.8,80 79.1,74.7 79.1,68.1C79.1,61.5 73.7,56.2 67.2,56.2ZM76.6,66.9L73.5,66.9C73.4,64.1 72.7,61.6 71.8,59.8C74.4,61.3 76.2,63.9 76.6,66.9ZM66,59.1L66,66.9L63.3,66.9C63.5,63.2 64.6,60.3 66,59.1ZM66,69.3L66,77.1C64.7,76 63.5,73 63.3,69.3L66,69.3ZM68.4,77.1L68.4,69.3L71.1,69.3C70.9,73 69.7,76 68.4,77.1ZM68.4,66.9L68.4,59.1C69.7,60.2 70.9,63.2 71.1,66.9L68.4,66.9ZM62.6,59.8C61.6,61.7 61.1,64.1 60.9,66.9L57.8,66.9C58.1,63.9 60,61.3 62.6,59.8ZM57.8,69.3L60.9,69.3C61,72.1 61.7,74.6 62.6,76.4C60,75 58.1,72.4 57.8,69.3ZM71.8,76.4C72.8,74.5 73.3,72.1 73.5,69.3L76.6,69.3C76.2,72.4 74.4,75 71.8,76.4Z" style="fill:white;fill-rule:nonzero;"/>
            </g>
        </g>
    </g>
</svg>